REM DIRINDEX 1\2\5,1\2\6,1\2\7,1\2\8,1\3\9,1\3\10,1\3\11,1\4\12,1\4\13,1\4\14,1\4\15,1\4\16
REM DIRNAME folder01,folder02,folder03,folder04,folder05,folder06,folder07,folder08,folder09,folder10,folder11,folder12,folder13,folder14,folder15,folder16
TITLE ""
FILE "1200_sec01_0016_0023.mp3" MP3
  TRACK 01 AUDIO
    TITLE "0:"
    INDEX 01 00:00:00
  TRACK 02 AUDIO
    TITLE "12:cjc034_03687"
    INDEX 01 00:00:19
  TRACK 03 AUDIO
    TITLE "0:"
    INDEX 01 00:01:36
  TRACK 04 AUDIO
    TITLE "13:cjc034_03688"
    INDEX 01 00:01:69
  TRACK 05 AUDIO
    TITLE "0:"
    INDEX 01 00:02:69
  TRACK 06 AUDIO
    TITLE "14:cjc034_03689"
    INDEX 01 00:03:27
  TRACK 07 AUDIO
    TITLE "0:"
    INDEX 01 00:04:44
  TRACK 08 AUDIO
    TITLE "15:cjc034_03690"
    INDEX 01 00:05:05
  TRACK 09 AUDIO
    TITLE "0:"
    INDEX 01 00:08:28
  TRACK 10 AUDIO
    TITLE "12:cjc034_03691"
    INDEX 01 00:09:63
  TRACK 11 AUDIO
    TITLE "0:"
    INDEX 01 00:11:11
  TRACK 12 AUDIO
    TITLE "13:cjc034_03692"
    INDEX 01 00:11:42
  TRACK 13 AUDIO
    TITLE "0:"
    INDEX 01 00:13:35
  TRACK 14 AUDIO
    TITLE "14:cjc034_03693"
    INDEX 01 00:13:71
  TRACK 15 AUDIO
    TITLE "0:"
    INDEX 01 00:15:17
  TRACK 16 AUDIO
    TITLE "15:cjc034_03694"
    INDEX 01 00:15:52
  TRACK 17 AUDIO
    TITLE "0:"
    INDEX 01 00:18:58
  TRACK 18 AUDIO
    TITLE "12:cjc034_03695"
    INDEX 01 00:20:28
  TRACK 19 AUDIO
    TITLE "0:"
    INDEX 01 00:21:31
  TRACK 20 AUDIO
    TITLE "13:cjc034_03696"
    INDEX 01 00:21:64
  TRACK 21 AUDIO
    TITLE "0:"
    INDEX 01 00:22:66
  TRACK 22 AUDIO
    TITLE "14:cjc034_03697"
    INDEX 01 00:23:36
  TRACK 23 AUDIO
    TITLE "0:"
    INDEX 01 00:24:39
  TRACK 24 AUDIO
    TITLE "15:cjc034_03698"
    INDEX 01 00:24:72
  TRACK 25 AUDIO
    TITLE "0:"
    INDEX 01 00:28:23
  TRACK 26 AUDIO
    TITLE "12:cjc034_03699"
    INDEX 01 00:29:60
  TRACK 27 AUDIO
    TITLE "0:"
    INDEX 01 00:30:73
  TRACK 28 AUDIO
    TITLE "13:cjc034_03700"
    INDEX 01 00:31:29
  TRACK 29 AUDIO
    TITLE "0:"
    INDEX 01 00:33:60
  TRACK 30 AUDIO
    TITLE "14:cjc034_03701"
    INDEX 01 00:34:24
  TRACK 31 AUDIO
    TITLE "0:"
    INDEX 01 00:35:37
  TRACK 32 AUDIO
    TITLE "15:cjc034_03702"
    INDEX 01 00:35:74
  TRACK 33 AUDIO
    TITLE "0:"
    INDEX 01 00:38:45
  TRACK 34 AUDIO
    TITLE "12:cjc034_03703"
    INDEX 01 00:40:05
  TRACK 35 AUDIO
    TITLE "0:"
    INDEX 01 00:41:20
  TRACK 36 AUDIO
    TITLE "13:cjc034_03704"
    INDEX 01 00:41:51
  TRACK 37 AUDIO
    TITLE "0:"
    INDEX 01 00:42:53
  TRACK 38 AUDIO
    TITLE "14:cjc034_03705"
    INDEX 01 00:43:15
  TRACK 39 AUDIO
    TITLE "0:"
    INDEX 01 00:44:28
  TRACK 40 AUDIO
    TITLE "15:cjc034_03706"
    INDEX 01 00:44:60
  TRACK 41 AUDIO
    TITLE "0:"
    INDEX 01 00:47:48
  TRACK 42 AUDIO
    TITLE "12:cjc034_03707"
    INDEX 01 00:49:06
  TRACK 43 AUDIO
    TITLE "0:"
    INDEX 01 00:50:13
  TRACK 44 AUDIO
    TITLE "13:cjc034_03708"
    INDEX 01 00:50:44
  TRACK 45 AUDIO
    TITLE "0:"
    INDEX 01 00:51:44
  TRACK 46 AUDIO
    TITLE "14:cjc034_03709"
    INDEX 01 00:52:04
  TRACK 47 AUDIO
    TITLE "0:"
    INDEX 01 00:53:11
  TRACK 48 AUDIO
    TITLE "15:cjc034_03710"
    INDEX 01 00:53:45
  TRACK 49 AUDIO
    TITLE "0:"
    INDEX 01 00:56:37
  TRACK 50 AUDIO
    TITLE "12:cjc034_03711"
    INDEX 01 00:57:70
  TRACK 51 AUDIO
    TITLE "0:"
    INDEX 01 00:59:12
  TRACK 52 AUDIO
    TITLE "13:cjc034_03712"
    INDEX 01 00:59:43
  TRACK 53 AUDIO
    TITLE "0:"
    INDEX 01 01:00:74
  TRACK 54 AUDIO
    TITLE "14:cjc034_03713"
    INDEX 01 01:01:34
  TRACK 55 AUDIO
    TITLE "0:"
    INDEX 01 01:02:50
  TRACK 56 AUDIO
    TITLE "15:cjc034_03714"
    INDEX 01 01:03:08
  TRACK 57 AUDIO
    TITLE "0:"
    INDEX 01 01:06:34
  TRACK 58 AUDIO
    TITLE "12:cjc034_03715"
    INDEX 01 01:07:66
  TRACK 59 AUDIO
    TITLE "0:"
    INDEX 01 01:09:18
  TRACK 60 AUDIO
    TITLE "13:cjc034_03716"
    INDEX 01 01:09:52
  TRACK 61 AUDIO
    TITLE "0:"
    INDEX 01 01:11:47
  TRACK 62 AUDIO
    TITLE "14:cjc034_03717"
    INDEX 01 01:12:07
  TRACK 63 AUDIO
    TITLE "0:"
    INDEX 01 01:13:32
  TRACK 64 AUDIO
    TITLE "15:cjc034_03718"
    INDEX 01 01:13:65
  TRACK 65 AUDIO
    TITLE "0:"
    INDEX 01 01:17:12
